# xmcd
#
# Track frame offsets:
#	150
#	17765
#	31865
#	51665
#	66665
#	84065
#	101615
#	118265
#	131538
#	149388
#	167003
#	181103
#	200903
#	215903
#	233303
#	250853
#	267503
#	280776
#
# Disc length: 3981 seconds
#
# Revision: 1
# Processed by: cddbd v1.5.1PL0 Copyright (c) Steve Scherf et al.
# Submitted via: audiograbber 1.83.01
#
DISCID=0d0f8b12
DTITLE=PopHits Monthly Country - PHM0111-C
DYEAR=1900
DGENRE=KARAOKE
TTITLE0=Lonestar - With Me
TTITLE1=Reba McEntire - I'm A Survivor
TTITLE2=Tim McGraw - Angry All The Time
TTITLE3=Mark McGuinn - That's A Plan
TTITLE4=Dixie Chicks - Heartbreak Town
TTITLE5=Collin Raye - Ain't Nobody Gonna Take That From Me
TTITLE6=Kenny Chesney - Tin Man
TTITLE7=Kortney Kayle - Unbroken By You
TTITLE8=Aaron Tippin - Always Was
TTITLE9=Lonestar - With Me (Vocal Version)
TTITLE10=Reba McEntire - I'm A Survivor (Vocal Version)
TTITLE11=Tim McGraw - Angry All The Time (Vocal Version)
TTITLE12=Mark McGuinn - That's A Plan (Vocal Version)
TTITLE13=Dixie Chicks - Heartbreak Town (Vocal Version)
TTITLE14=Collin Raye - Ain't Nobody Gonna Take That From Me (Vocal Version)
TTITLE15=Kenny Chesney - Tin Man (Vocal Version)
TTITLE16=Kortney Kayle - Unbroken By You (Vocal Version)
TTITLE17=Aaron Tippin - Always Was (Vocal Version)
EXTD=
EXTT0=
EXTT1=
EXTT2=
EXTT3=
EXTT4=
EXTT5=
EXTT6=
EXTT7=
EXTT8=
EXTT9=
EXTT10=
EXTT11=
EXTT12=
EXTT13=
EXTT14=
EXTT15=
EXTT16=
EXTT17=
PLAYORDER=
